<?xml version="1.0"?>
<svg xmlns="http://www.w3.org/2000/svg"
	 xmlns:xlink="http://www.w3.org/1999/xlink"
	 version="1.1"
	 x="0px"
	 y="0px"
	 viewBox="0 0 512 512"
	 style="enable-background:new 0 0 512 512;"
	 width="512"
	 height="512"
	 xml:space="preserve">

    <style>
        .outline { fill: #6f7b90; }
    </style>

	<g class="outline">
		<path d="M76,358.7c-15.6-0.3-29.1-4.3-40.6-11.8C24,339.4,15.5,329.1,10,316c-5.5-13.1-7.6-27.6-6.2-43.7l0.5-6.8c2-18.3,7.3-34.7,16-49.2c8.7-14.6,19.5-25.6,32.5-33.1c12.9-7.5,27-11.1,42.2-10.8c22.5,0.4,39.3,8.8,50.6,25.1c11.2,16.3,15.5,37.5,12.7,63.7l-2.3,17.3H42.8c-1,14.2,1.9,25.7,8.6,34.4c6.8,8.7,16,13.2,27.9,13.4c16.9,0.6,32.5-6.8,46.8-22.1l19.9,20.9c-7.5,10.7-17.4,19.1-29.7,25S90.6,358.9,76,358.7z M92.8,204.6C72,204,56.4,218.7,46,248.8l74.5,0.2l0.7-3.5c0.8-5.1,0.8-10.1,0.2-14.9c-1.2-7.9-4.3-14.1-9.3-18.6C107,207.4,100.6,205,92.8,204.6z"/>
		<path d="M261.4,132.1l-7.6,43.7h30.7l-5.1,29.9h-30.9l-16.9,100.6c-0.3,2.8-0.4,5.3-0.2,7.5c0.7,7.2,5.1,11,13.3,11.3c4.1,0,8.7-0.5,13.9-1.5L256,355c-8.2,2.3-16.4,3.5-24.7,3.5c-13.7-0.2-24-4.9-30.8-14s-9.5-21.2-8.1-36.3l16.8-102.6h-28.7l5.3-29.9h28.6l7.6-43.7H261.4z"/>
		<path d="M363,326.6c9.4,0.2,17.7-2.5,25-8.2c7.2-5.7,11.9-13.1,13.9-22.3l37.2-0.2c-1.2,11.8-5.5,22.6-12.9,32.4c-7.4,9.7-16.8,17.3-28.3,22.7c-11.5,5.4-23.5,8-36,7.6c-15.4-0.2-28.5-4.2-39.3-12c-10.8-7.7-18.8-18.5-23.7-32.1c-5-13.7-6.6-28.9-5-45.7l0.5-5.8c1.9-17.4,6.9-33.1,15.2-47.2c8.2-14.1,18.9-25,32-32.6c13.1-7.6,27.6-11.2,43.5-10.8c19.5,0.4,35,6.9,46.7,19.3s17.4,28.6,17.4,48.6h-36.9c0-10.3-2.5-18.7-7.6-25.2c-5-6.5-12.3-10-21.8-10.5c-15.4-0.4-27.5,6.1-36.4,19.6c-8.9,13.5-13.6,32.5-14.3,57.1C331.4,311.1,341.7,326.2,363,326.6z"/>
		<path d="M464.3,335.9c0-6.7,2.1-12.3,6.4-16.5c4.3-4.3,9.7-6.5,16.4-6.7c6.5-0.2,12,1.7,16.4,5.9c4.4,4.2,6.6,9.5,6.6,16c0,6.4-2.1,11.8-6.3,16c-4.2,4.3-9.7,6.5-16.4,6.7c-6.5,0.2-12-1.7-16.4-5.8C466.5,347.4,464.3,342.2,464.3,335.9z"/>
	</g>

</svg>
