<?xml version="1.0"?>
<svg xmlns="http://www.w3.org/2000/svg"
	 xmlns:xlink="http://www.w3.org/1999/xlink"
	 version="1.1"
	 x="0px"
	 y="0px"
	 viewBox="0 0 512 512"
	 style="enable-background:new 0 0 512 512;"
	 width="512"
	 height="512"
	 xml:space="preserve">

	<path style="fill: #6f7b90;" d="M497,241h-46v-45c0-8.291-6.709-15-15-15H325.858L271,126.142V91h45c8.291,0,15-6.709,15-15V15c0-8.291-6.709-15-15-15H196   c-8.291,0-15,6.709-15,15v61c0,8.291,6.709,15,15,15h45v35.142L186.142,181H76c-8.291,0-15,6.709-15,15v45H15   c-8.291,0-15,6.709-15,15v60c0,8.291,6.709,15,15,15h46v45c0,8.291,6.709,15,15,15h165v30h-45c-8.291,0-15,6.709-15,15v61   c0,8.291,6.709,15,15,15h120c8.291,0,15-6.709,15-15v-61c0-8.291-6.709-15-15-15h-45v-30h165c8.291,0,15-6.709,15-15v-45h46   c8.291,0,15-6.709,15-15v-60C512,247.709,505.291,241,497,241z M421,241h-45c-8.291,0-15,6.709-15,15v60c0,8.291,6.709,15,15,15h45   v30H91v-30h45c8.291,0,15-6.709,15-15v-60c0-8.291-6.709-15-15-15H91v-30h95.142l59.253,59.253c2.93,2.93,6.768,4.395,10.605,4.395   s7.676-1.465,10.605-4.395L325.858,211H421V241z"/>

</svg>
